<svg xmlns="http://www.w3.org/2000/svg" version="1.1" xmlns:xlink="http://www.w3.org/1999/xlink" width="192.5" height="192.5"><svg xmlns="http://www.w3.org/2000/svg" version="1.1" xmlns:xlink="http://www.w3.org/1999/xlink" width="192.5" height="192.5"><svg id="_图层_2" data-name="图层 2" xmlns="http://www.w3.org/2000/svg" viewBox="0 0 192.5 192.5">
  <defs>
    <style>
      .cls-1 {
        fill: #c62d25;
      }

      .cls-2 {
        fill: #231815;
        fill-rule: evenodd;
      }

      .cls-3 {
        fill: #fff;
        opacity: 0;
        stroke: #231815;
        stroke-miterlimit: 10;
        stroke-width: .5px;
      }
    </style>
  </defs>
  <g id="_亮" data-name="亮">
    <rect class="cls-3" x=".25" y=".25" width="192" height="192"></rect>
    <g>
      <path class="cls-2" d="M100.14,189.51c.82-10.4-4.6-16.32-4.45-25.88-.05-2.99.49-7.39,1.19-10.38.74-3.45,2.19-7.51,4.1-10.18,1.73-2.57,3.62-4.5,5.41-8.19,3-7.33,5.88-16.79,9.99-22.27,1.25-2.04,3.43-3.05,5.74-3.61,10.52-2.15,21.5-10.8,27.45-18.24,2.01-2.35-.7-1.43-2.23-1.13-6,1.51-18.38.82-16.53-6.7,1.26-6.59,1.07-14.35-.78-21.1-.89-4.1-3.13-7.74-4.32-11.71-.33-1.36-.37-2.8-.37-4.21.09-9.97-4.18-19.68-11.79-26.27-.9-.82-2.75-2.14-2.51.02.58,3.78,1.06,7.88.44,11.74-.22,1.77-1.28,2.78-3.13,1.82-2.4-1.24-5.03-2.62-7.65-3.51-13.08-4.84-28.48-3.08-40.23,4.36-1.81,1.14-3.54.58-4.47-1.24-2.84-5.31-3.84-11.35-3.56-17.17.08-2.25-1.15-1.73-2.37-.28-8.08,9.04-11.01,21.52-7.69,32.67,2.14,5.03-1.44,9.57-2.42,14.43-3.45,13.35-.56,28.6,7.77,39.7,4.19,5.36,9.25,9.93,12.4,16.08,2.34,3.95,3.57,8.56,5.3,12.85,3.92,9.39,9.21,12.51,12.17,23.15,1.04,3.51,2.33,7.41,4.18,10.42,5,8.35,11.91,10.13,16.78,21.87.24.58.47,1.14.68,1.61.33.84.74,1.4.78,1.36h.12Z"></path>
      <g>
        <path class="cls-1" d="M149.09,82.79c.01.1.02.26.02.41.02.35-.17.63-.45.31-.13-.33.13-.68.13-1.03.12-.67-.18-1.56-.66-1.95,0,.19.08.56-.03.93-.04.17-.32.52-.37.43.03-.41.06-1.32-.29-1.81-.22-.37-.52-.67-.56-.7.24.79.15,1.75-.31,2.46-.42.69-1.03,1.63-.64,2.43h0c-.06,0-.28-.4-.27-.84,0-.2.05-.41.06-.5.02-.1-.02-.06-.1.05-.24.3-.45.83-.47,1.17-.29,1.64,1.32,2.81,2.94,2.41.97-.28,1.34-1.24,1.43-2.29.05-.49-.1-1.26-.4-1.59-.05-.05-.06-.03-.05.1Z"></path>
        <path class="cls-1" d="M153,73.3c-.16-.17-.2-.09-.15.33.03.33.08.82.07,1.3.07,1.1-.53,1.97-1.42.99-.39-1.04.42-2.13.41-3.24.39-2.1-.56-4.91-2.08-6.13-.01.6.25,1.75-.08,2.92-.11.52-1.01,1.64-1.17,1.35.09-1.3.2-4.15-.9-5.67-.69-1.15-1.62-2.11-1.76-2.2.76,2.47.47,5.49-.98,7.74-1.33,2.15-3.24,5.12-2,7.62h0c-.18-.02-.88-1.27-.84-2.65-.02-.61.14-1.29.2-1.57.07-.3-.05-.18-.31.15-.75.95-1.41,2.61-1.48,3.68-.51,2.89.85,5.31,3.04,6.66-.8-.89-1.21-2.06-.96-3.39.05-.7.51-1.77,1.03-2.39.18-.21.27-.29.22-.1-.04.18-.15.62-.14,1.02-.02.9.46,1.71.59,1.72h0c-.86-1.62.47-3.55,1.39-4.95,1.01-1.46,1.21-3.42.68-5.03.1.06.75.68,1.22,1.43.76.99.69,2.84.63,3.68.11.19.74-.54.82-.87.23-.76.05-1.51.06-1.9,1.06.79,1.72,2.62,1.45,3.98,0,.72-.56,1.43-.29,2.1.62.64,1.04.07.99-.64,0-.31-.03-.63-.05-.84-.03-.27,0-.32.11-.21.65.68.98,2.25.87,3.24-.14,1.43-.55,2.77-1.43,3.68,2.33-1.19,3.28-3.89,3.54-6.81.16-1.53-.32-3.95-1.25-5Z"></path>
      </g>
    </g>
  </g>
</svg></svg><style>@media (prefers-color-scheme: light) { :root { filter: none; } }
@media (prefers-color-scheme: dark) { :root { filter: invert(100%); } }
</style></svg>