<svg xmlns="http://www.w3.org/2000/svg" version="1.1" xmlns:xlink="http://www.w3.org/1999/xlink" width="76" height="115.17"><svg xmlns="http://www.w3.org/2000/svg" version="1.1" xmlns:xlink="http://www.w3.org/1999/xlink" width="76" height="115.17"><svg id="_图层_2" data-name="图层 2" xmlns="http://www.w3.org/2000/svg" viewBox="0 0 76 115.17">
  <defs>
    <style>
      .cls-1 {
        fill: #c62d25;
      }

      .cls-2 {
        fill-rule: evenodd;
      }
    </style>
  </defs>
  <g id="_图层_4" data-name="图层 4">
    <g>
      <path class="cls-2" d="M40.45,115.17c.54-6.83-3.02-10.72-2.92-16.99-.03-1.97.32-4.85.78-6.82.49-2.26,1.44-4.93,2.69-6.69,1.14-1.69,2.38-2.95,3.55-5.38,1.97-4.81,3.86-11.03,6.56-14.62.82-1.34,2.25-2,3.77-2.37,6.91-1.41,14.12-7.09,18.02-11.97,1.32-1.54-.46-.94-1.46-.74-3.94.99-12.07.54-10.85-4.4.83-4.33.7-9.42-.51-13.85-.59-2.7-2.05-5.08-2.83-7.69-.21-.89-.25-1.84-.25-2.77.06-6.55-2.74-12.92-7.74-17.25-.59-.54-1.81-1.4-1.65.01.38,2.48.69,5.17.29,7.71-.15,1.16-.84,1.83-2.05,1.19-1.58-.81-3.3-1.72-5.02-2.31-8.59-3.18-18.7-2.02-26.41,2.86-1.19.75-2.33.38-2.93-.81-1.87-3.49-2.52-7.45-2.34-11.28.05-1.48-.75-1.14-1.56-.19C2.27,6.76.34,14.95,2.53,22.27c1.4,3.3-.94,6.29-1.59,9.47-2.27,8.77-.37,18.78,5.1,26.07,2.75,3.52,6.08,6.52,8.14,10.56,1.54,2.59,2.34,5.62,3.48,8.43,2.58,6.17,6.05,8.22,7.99,15.2.68,2.3,1.53,4.87,2.75,6.84,3.28,5.49,7.82,6.65,11.02,14.36.16.38.31.75.45,1.06.22.55.49.92.51.89h.08Z"></path>
      <g>
        <path class="cls-1" d="M72.59,45.09c0,.07.02.17.01.27.01.23-.11.41-.3.21-.08-.22.09-.44.09-.68.08-.44-.12-1.03-.43-1.28,0,.12.05.37-.02.61-.02.11-.21.34-.25.28.02-.27.04-.87-.19-1.19-.14-.24-.34-.44-.37-.46.16.52.1,1.15-.2,1.62-.28.45-.68,1.07-.42,1.59h0s-.18-.27-.18-.55c0-.13.03-.27.04-.33.01-.06-.01-.04-.06.03-.16.2-.29.55-.31.77-.19,1.08.87,1.85,1.93,1.59.64-.18.88-.82.94-1.5.03-.32-.07-.83-.26-1.04-.03-.04-.04-.02-.03.07Z"></path>
        <path class="cls-1" d="M75.16,38.86c-.1-.11-.13-.06-.1.22.02.21.05.54.05.85.05.72-.35,1.3-.93.65-.26-.68.28-1.4.27-2.13.25-1.38-.37-3.22-1.37-4.03,0,.39.17,1.15-.05,1.92-.07.34-.66,1.07-.77.89.06-.86.13-2.73-.59-3.72-.45-.76-1.07-1.39-1.16-1.44.5,1.62.31,3.61-.64,5.08-.88,1.41-2.12,3.36-1.32,5h0c-.12-.01-.58-.84-.55-1.74-.01-.4.09-.85.13-1.03.05-.2-.03-.12-.2.1-.49.62-.93,1.71-.97,2.42-.33,1.9.56,3.49,2,4.38-.53-.58-.79-1.35-.63-2.23.03-.46.33-1.17.67-1.57.12-.14.17-.19.14-.06-.03.12-.1.41-.09.67-.01.59.3,1.12.39,1.13h0c-.56-1.07.31-2.33.91-3.25.66-.96.79-2.25.45-3.3.06.04.49.45.8.94.5.65.45,1.86.41,2.42.07.12.48-.35.54-.57.15-.5.03-.99.04-1.24.7.52,1.13,1.72.95,2.61,0,.48-.37.94-.19,1.38.4.42.68.05.65-.42,0-.2-.02-.42-.03-.55-.02-.18,0-.21.07-.14.43.44.65,1.48.57,2.13-.09.94-.36,1.82-.94,2.41,1.53-.78,2.15-2.55,2.33-4.47.11-1.01-.21-2.6-.82-3.28Z"></path>
      </g>
    </g>
  </g>
</svg></svg><style>@media (prefers-color-scheme: light) { :root { filter: none; } }
@media (prefers-color-scheme: dark) { :root { filter: invert(100%); } }
</style></svg>