<svg xmlns="http://www.w3.org/2000/svg" version="1.1" xmlns:xlink="http://www.w3.org/1999/xlink" width="200" height="200"><svg xmlns="http://www.w3.org/2000/svg" version="1.1" xmlns:xlink="http://www.w3.org/1999/xlink" width="200" height="200"><svg xmlns:svg="http://www.w3.org/2000/svg" xmlns="http://www.w3.org/2000/svg" width="200" height="200" version="1.1">
  <g transform="translate(0,-852.36218)" style="display:inline">
    <path d="m 121.78858,1050.818 c 0.5337,-18.9228 -8.23776,-20.2292 -4.39515,-40.4458 3.17079,-16.75617 9.11052,-13.21402 13.63752,-28.5131 2.76267,-9.30756 6.7183,-15.53145 10.70533,-21.27802 17.53664,-1.51358 29.52284,-14.87201 34.64005,-21.85582 -9.02261,4.0383 -16.32484,2.05369 -21.66808,-3.21557 0.96044,-4.59012 1.80517,-9.69331 1.85224,-14.03671 0,-9.69067 -2.66221,-18.75958 -7.28339,-26.52217 1.82712,-14.01159 -4.42655,-28.18647 -16.48181,-36.22539 1.93386,6.249 2.25408,13.00672 0.71578,19.60743 -8.24404,-5.52048 -18.15196,-8.74861 -28.80706,-8.74861 -11.389711,0 -21.919232,3.6866 -30.470936,9.92305 -5.21767,-7.85679 -6.91922,-17.01991 -5.468821,-25.79364 -12.620356,11.33614 -16.632499,28.99037 -9.964431,43.63 -3.798664,7.20991 -5.952287,15.4184 -5.952287,24.12933 0,15.34932 6.674348,29.14109 17.260378,38.64335 4.464215,5.73401 8.658443,11.67528 10.868575,19.14268 4.401428,14.84061 12.042708,17.01991 15.615336,31.10059 5.588116,21.9752 18.327766,17.2963 25.196756,40.4584" style="fill:#000000;fill-opacity:1;fill-rule:evenodd;stroke:none"></path>
    <path style="fill:#000000;fill-opacity:1;fill-rule:evenodd;stroke:none" d="m 172.62687,904.75912 c -0.7256,-1.34976 -0.22747,-4.78865 -2.97893,-6.60824 0.83112,16.20877 -4.66365,19.15618 -4.92128,25.61379 -0.25763,6.45761 2.08984,10.93306 9.1814,11.42956 7.09155,0.4965 10.53265,-5.95934 10.32015,-12.43772 -0.20298,-4.54077 -2.69414,-8.08725 -2.7291,-11.65934 -0.0704,-7.19045 3.41582,-5.25008 2.68758,-11.08981 -1.97379,5.89592 -5.54786,3.04253 -4.92757,0.95694 1.08749,-3.65647 2.25432,-8.66109 -1.40269,-11.92546 1.43489,8.8585 -6.16734,8.82803 -5.22956,15.72028 z"></path>
    <g>
      <path style="fill:#0f0f0e;fill-opacity:1;stroke:#000000;stroke-width:3.76775789;stroke-linecap:butt;stroke-linejoin:miter;stroke-miterlimit:2.41400003;stroke-opacity:1;stroke-dasharray:none" d="m 28.538176,886.13728 0,163.83702"></path>
      <path style="fill:#0e0f0e;fill-opacity:1;fill-rule:evenodd;stroke:none" d="m 28.728381,859.17549 3.227295,14.50774 4.206785,13.62849 -7.622444,-1.17444 -7.773134,1.04255 4.401427,-13.32703 3.560071,-14.67731 z"></path>
      <path style="fill:none;stroke:#0e0f0e;stroke-width:3.13979816;stroke-linecap:butt;stroke-linejoin:miter;stroke-miterlimit:2.41400003;stroke-opacity:1;stroke-dasharray:none" d="m 14.77317,894.85259 c -0.04395,28.75171 27.099232,27.67148 27.143184,-0.0126"></path>
      <path style="fill:#0e0f0e;fill-opacity:1;fill-rule:evenodd;stroke:none" d="m 14.601138,882.70249 0,0 -3.899125,13.37099 3.760992,-0.79133 4.187949,1.04255 -4.049816,-13.62221 z"></path>
      <path style="fill:#0e0f0e;fill-opacity:1;fill-rule:evenodd;stroke:none" d="m 41.880581,883.96612 0,0 3.497283,13.62221 -3.635416,-1.04255 -3.767271,0.79133 3.905404,-13.37099 z"></path>
    </g>
  </g>
</svg></svg><style>@media (prefers-color-scheme: light) { :root { filter: none; } }
@media (prefers-color-scheme: dark) { :root { filter: invert(100%); } }
</style></svg>